<svg id="Capa_1" enable-background="new 0 0 512 512" height="512" viewBox="0 0 512 512" width="512" xmlns="http://www.w3.org/2000/svg"><g><g><path d="m402.486 404.102h-102.015l-68.533-177.542 170.548-76.185z" fill="#bebebc"/><path d="m109.514 49.017c-56.341 0-102.014 79.489-102.014 177.543v216.074c0 12.572 14.338 19.763 24.414 12.245 14.482-10.806 34.346-10.806 48.829 0 14.482 10.806 34.346 10.806 48.828 0 14.482-10.806 34.346-10.806 48.828 0 14.482 10.806 34.346 10.806 48.829 0 14.482-10.806 34.346-10.806 48.829 0 10.076 7.519 24.414.328 24.414-12.245v-216.074l102.015-177.543z" fill="#dadada"/><ellipse cx="402.486" cy="226.56" fill="#ccccca" rx="102.014" ry="177.542"/><ellipse cx="402.486" cy="226.56" fill="#bebebc" rx="43.775" ry="76.185"/><path d="m37.219 271.551c0-89.507 39.264-169.506 100.914-222.534h-28.618c-56.342 0-102.015 79.489-102.015 177.543v216.074c0 12.572 14.338 19.763 24.414 12.245 14.482-10.807 34.346-10.807 48.828 0 7.796 5.817 17.152 8.498 26.389 8.051-43.498-50.984-69.912-117.98-69.912-191.379z" fill="#ccccca"/></g><g><path d="m402.485 142.91c-28.752 0-51.275 36.759-51.275 83.685s22.523 83.685 51.275 83.685 51.275-36.759 51.275-83.685-22.522-83.685-51.275-83.685zm0 152.37c-19.663 0-36.275-31.454-36.275-68.685s16.612-68.685 36.275-68.685 36.275 31.454 36.275 68.685c.001 37.232-16.612 68.685-36.275 68.685z"/><path d="m256.252 263.536c4.142 0 7.5-3.358 7.5-7.5s-3.358-7.5-7.5-7.5h-29.219c-4.142 0-7.5 3.358-7.5 7.5s3.358 7.5 7.5 7.5z"/><path d="m205.314 256.036c0-4.142-3.358-7.5-7.5-7.5h-29.219c-4.142 0-7.5 3.358-7.5 7.5s3.358 7.5 7.5 7.5h29.219c4.142 0 7.5-3.358 7.5-7.5z"/><path d="m146.876 256.036c0-4.142-3.358-7.5-7.5-7.5h-29.219c-4.142 0-7.5 3.358-7.5 7.5s3.358 7.5 7.5 7.5h29.219c4.142 0 7.5-3.358 7.5-7.5z"/><path d="m88.438 256.036c0-4.142-3.358-7.5-7.5-7.5h-29.219c-4.142 0-7.5 3.358-7.5 7.5s3.358 7.5 7.5 7.5h29.219c4.142 0 7.5-3.358 7.5-7.5z"/><path d="m88.97 358.183h.006c4.14 0 7.497-3.354 7.5-7.494l.009-12.201c.003-4.142-3.352-7.502-7.494-7.505-.002 0-.004 0-.006 0-4.14 0-7.497 3.354-7.5 7.494l-.009 12.201c-.003 4.141 3.352 7.502 7.494 7.505z"/><path d="m219.046 331.109c-4.14 0-7.497 3.354-7.5 7.494l-.009 12.201c-.003 4.142 3.352 7.502 7.494 7.505h.006c4.14 0 7.497-3.354 7.5-7.494l.009-12.201c.003-4.142-3.352-7.503-7.494-7.506-.002.001-.004.001-.006.001z"/><path d="m136.85 363.648 34.29.03h.006c4.139 0 7.497-3.354 7.5-7.494.003-4.142-3.352-7.502-7.494-7.506l-34.29-.03c-.002 0-.004 0-.006 0-4.139 0-7.497 3.354-7.5 7.494-.003 4.142 3.352 7.503 7.494 7.506z"/><path d="m36.399 460.925c11.734-8.755 28.125-8.755 39.858 0 17.015 12.696 40.783 12.696 57.799 0 11.734-8.756 28.125-8.755 39.858 0 17.014 12.695 40.783 12.697 57.799 0 11.734-8.756 28.125-8.755 39.858 0 15.017 11.204 36.399.475 36.399-18.256v-31.031h94.514c23.368 0 45.583-12.021 64.243-34.762 2.627-3.202 2.162-7.928-1.041-10.555-3.203-2.628-7.928-2.162-10.555 1.041-15.716 19.153-33.921 29.276-52.647 29.276-52.298 0-94.514-77.768-94.514-170.042 0-31.776 4.972-65.056 16.327-94.998 1.472-3.882-.489-8.206-4.354-9.672-3.884-1.472-8.207.488-9.672 4.354-11.996 31.633-17.301 66.745-17.301 100.316v21.94h-7.5c-4.142 0-7.5 3.358-7.5 7.5s3.358 7.5 7.5 7.5h7.5v179.133c0 6.388-7.275 10.08-12.429 6.233-17.016-12.696-40.783-12.696-57.799 0-11.733 8.756-28.125 8.755-39.858 0-17.016-12.696-40.784-12.696-57.799 0-11.733 8.755-28.124 8.756-39.858 0-17.016-12.696-40.783-12.696-57.799 0-5.119 3.822-12.428.198-12.428-6.233v-179.133h7.5c4.142 0 7.5-3.358 7.5-7.5s-3.358-7.5-7.5-7.5h-7.5v-21.94c0-46.132 10.257-89.39 28.882-121.805 17.874-31.106 41.182-48.237 65.632-48.237h249.285c-11.685 8.481-24.257 21.936-35.397 41.559-2.033 3.58-.807 8.165 2.819 10.225 3.602 2.045 8.179.784 10.225-2.819 14.41-25.38 36.967-48.965 66.04-48.965 24.45 0 47.759 17.131 65.632 48.237 18.625 32.414 28.882 75.671 28.882 121.804 0 43.745-9.365 85.386-26.371 117.252-1.95 3.655-.569 8.198 3.085 10.148 3.642 1.943 8.19.582 10.148-3.085 18.145-34.002 28.138-78.151 28.138-124.315 0-48.714-10.965-94.625-30.876-129.278-20.662-35.959-48.589-55.763-78.636-55.764 0 0-.001 0-.002 0h-292.972c-30.048 0-57.976 19.804-78.638 55.764-19.911 34.653-30.876 80.564-30.876 129.278v216.074c0 18.734 21.386 29.458 36.399 18.256zm322.408-64.287h-50.835v-75.98c9.881 28.416 26.497 58.306 50.835 75.98z"/></g></g></svg>