<svg id="Capa_1" enable-background="new 0 0 512 512" height="512" viewBox="0 0 512 512" width="512" xmlns="http://www.w3.org/2000/svg"><g><g><path d="m388.53 202.73h-35.028v-85.685c0-12.721 4.953-24.68 13.948-33.675l57.481-57.48 24.768 24.769-57.48 57.479c-2.378 2.379-3.689 5.542-3.689 8.907z" fill="#c7c5cb"/><path d="m424.93 25.89-34.584 34.583c.177.183.344.371.524.551l23.691 23.692c.18.18.37.349.552.526l34.584-34.584z" fill="#b2b0bc"/><path d="m462.544 36.736-23.691-23.692c-7.392-7.392-19.377-7.392-26.769-.001-7.392 7.392-7.392 19.376-.001 26.768l23.691 23.692c7.392 7.392 19.376 7.392 26.769 0 7.393-7.39 7.393-19.375.001-26.767z" fill="#5c586f"/><g><path d="m284.951 147.681h-50.04v-50.58c0-21.347-17.366-38.714-38.714-38.714-21.347 0-38.714 17.367-38.714 38.714v50.58h-50.04v-50.58c0-48.939 39.815-88.754 88.754-88.754s88.754 39.815 88.754 88.754z" fill="#36d39a"/></g><path d="m388.53 155.228c-5.562-1.625-11.435-2.514-17.514-2.514-6.08 0-11.952.889-17.514 2.514v47.503h35.028z" fill="#b2b0bc"/><path d="m371.015 182.714c-17.973 0-32.542 14.57-32.542 32.542v230.087c0 17.973 14.57 32.542 32.542 32.542 17.972 0 32.542-14.57 32.542-32.542v-230.087c0-17.972-14.569-32.542-32.542-32.542z" fill="#5c586f"/><path d="m403.557 296.988h-93.019v55.028h93.019c15.195 0 27.514-12.318 27.514-27.514s-12.318-27.514-27.514-27.514z" fill="#c7c5cb"/><path d="m296.022 199.364-5.89-5.89-93.935-39.467-93.935 39.467-5.89 5.89c-33.589 33.589-52.459 79.145-52.459 126.647v108.106c0 12.852 3.519 25.46 10.176 36.454 12.753 21.062 35.585 33.929 60.207 33.929h163.804c24.622 0 47.454-12.867 60.206-33.929 6.657-10.994 10.176-23.601 10.176-36.454v-108.106c-.001-47.502-18.871-93.058-52.46-126.647z" fill="#36d39a"/><path d="m111.22 315.054c0-50.378 12.774-97.988 35.454-140.24l-44.413 18.66-5.89 5.89c-33.589 33.589-52.459 79.145-52.459 126.647v108.106c0 12.853 3.519 25.46 10.176 36.454 12.753 21.062 35.585 33.929 60.207 33.929h55.374c-36.897-57.481-58.449-123.957-58.449-189.446z" fill="#00c67f"/><path d="m171.22 12.224c0-.099.002-.196.002-.294-36.818 10.814-63.779 44.9-63.779 85.171v50.58h50.04v-50.58c0-13.806 7.269-25.939 18.176-32.794-2.911-17.307-4.439-34.729-4.439-52.083z" fill="#00c67f"/><path d="m286.641 114.54h-180.888c-17.604 0-30.509 16.859-25.575 33.758 4.853 16.622 12.407 31.894 22.084 45.176h187.871c9.677-13.282 17.231-28.553 22.084-45.176 4.933-16.898-7.972-33.758-25.576-33.758z" fill="#5c586f"/><ellipse cx="196.197" cy="329.254" fill="#fff" rx="104.977" ry="69.624"/><path d="m111.22 315.054c0-9.396.47-18.689 1.339-27.876-13.388 11.688-21.339 26.265-21.339 42.076 0 17.515 9.754 33.517 25.851 45.752-3.838-19.887-5.851-39.965-5.851-59.952z" fill="#e5e5e5"/><path d="m188.867 114.541h-83.114c-17.604 0-30.509 16.859-25.575 33.757 4.853 16.623 12.407 31.895 22.084 45.176h35.194c12.956-28.704 30.353-55.264 51.411-78.933z" fill="#4f4c5f"/></g><g><path d="m274.578 384.736c21.991-14.585 34.102-34.289 34.102-55.482s-12.111-40.897-34.102-55.482c-43.526-28.868-113.205-28.88-156.75 0-21.991 14.585-34.101 34.289-34.101 55.482s12.11 40.897 34.101 55.482c43.529 28.87 113.206 28.88 156.75 0zm-175.851-55.482c0-16.001 9.728-31.266 27.392-42.982 38.522-25.549 101.652-25.545 140.169 0 17.664 11.716 27.392 26.98 27.392 42.982 0 16.001-9.728 31.266-27.392 42.981-38.524 25.55-101.652 25.545-140.169 0-17.664-11.714-27.392-26.979-27.392-42.981z"/><path d="m133.705 339.185c4.142 0 7.5-3.358 7.5-7.5v-12.01c0-4.142-3.358-7.5-7.5-7.5s-7.5 3.358-7.5 7.5v12.01c0 4.142 3.358 7.5 7.5 7.5z"/><path d="m258.702 339.185c4.142 0 7.5-3.358 7.5-7.5v-12.01c0-4.142-3.358-7.5-7.5-7.5-4.143 0-7.5 3.358-7.5 7.5v12.01c0 4.142 3.358 7.5 7.5 7.5z"/><path d="m218.335 336.255c2.721-3.123 2.396-7.86-.727-10.582-3.122-2.722-7.86-2.396-10.582.727-5.722 6.566-15.908 6.585-21.646 0-2.721-3.123-7.459-3.448-10.582-.727s-3.448 7.459-.727 10.582c11.689 13.413 32.541 13.451 44.264 0z"/><path d="m196.204 15.849c13.838 0 27.515 3.562 39.551 10.301 3.614 2.023 8.185.734 10.208-2.88s.734-8.185-2.88-10.208c-14.27-7.99-30.481-12.213-46.879-12.213-53.075 0-96.254 43.179-96.254 96.254v10.43c-19.299 3.267-32.804 22.868-26.965 42.869 4.432 15.183 10.997 29.351 19.544 42.206-1.366 1.65-25.971 23.524-41.906 61.993-9.426 22.755-14.205 46.781-14.205 71.411v46.021c0 4.142 3.358 7.5 7.5 7.5 4.143 0 7.5-3.358 7.5-7.5v-46.021c0-45.837 17.851-88.931 50.263-121.343l3.693-3.693h181.657c6.634 8.134 53.956 48.727 53.956 125.037v26.005c-.03 87.147.477 85.61-1.149 94.022-5.772 29.886-32.065 50.96-61.733 50.96h-163.803c-34.515 0-62.883-28.045-62.883-62.882v-32.085c0-4.142-3.357-7.5-7.5-7.5-4.142 0-7.5 3.358-7.5 7.5v32.085c0 43.921 35.993 77.882 77.883 77.882h163.803c26.809 0 52.096-14.113 66.202-36.876 7.255 6.491 16.748 10.261 26.715 10.261 22.079 0 40.042-17.963 40.042-40.042v-86.644c15.713-3.444 27.514-17.464 27.514-34.197 0-16.732-11.8-30.753-27.514-34.197v-75.049c0-12.621-5.875-23.89-15.028-31.234v-66.977c0-1.381.516-2.627 1.492-3.604l39.724-39.724c9.761 4.941 22.202 3.49 30.601-4.909 10.304-10.304 10.304-27.07.001-37.375l-23.691-23.69c-10.318-10.317-27.045-10.33-37.375 0-8.264 8.264-9.894 20.683-4.902 30.593l-39.734 39.733c-10.411 10.412-16.144 24.254-16.144 38.978v66.976c-9.153 7.345-15.029 18.614-15.029 31.235v17.435c-14.026-24.322-29.927-38.755-31.102-40.084 8.547-12.855 15.112-27.024 19.544-42.206 5.845-20.019-7.684-39.605-26.965-42.869v-10.43c0-23.356-8.507-45.898-23.954-63.473-2.734-3.111-7.474-3.416-10.585-.682s-3.417 7.474-.682 10.584c13.039 14.836 20.221 33.861 20.221 53.571v9.939h-35.04v-9.939c0-25.482-20.731-46.214-46.214-46.214s-46.212 20.73-46.212 46.212v9.939h-35.04v-9.939c0-44.803 36.45-81.253 81.254-81.253zm199.86 429.494c0 13.808-11.234 25.042-25.042 25.042-7.732 0-15.02-3.622-19.732-9.638 2.984-8.116 4.698-17.424 4.698-26.63v-74.601h40.076zm27.513-120.84c0 11.036-8.978 20.014-20.014 20.014h-47.576c-.169-14.319.562-24.377-1.245-40.028h48.821c11.036-.001 20.014 8.978 20.014 20.014zm-6.183-306.154c4.457-4.456 11.706-4.456 16.162 0l23.691 23.692c4.456 4.456 4.456 11.706 0 16.162-4.285 4.284-11.24 4.537-15.809.306-.86-.794-23.636-23.611-24.452-24.451-4.03-4.481-3.903-11.399.408-15.709zm-56.386 98.697c0-10.717 4.173-20.793 11.751-28.372l38.793-38.792 14.161 14.162-38.793 38.793c-3.794 3.796-5.884 8.842-5.884 14.209v59.437c-3.087-.797-6.705-1.268-10.014-1.268-3.386 0-7.005.491-10.013 1.268v-59.437zm10.014 73.169c13.859 0 25.042 11.303 25.042 25.042v74.231h-43.668c-1.603-8.03-3.751-15.951-6.416-23.742v-50.489c-.001-13.885 11.329-25.042 25.042-25.042zm-65.999-44.018c-4.199 14.384-10.505 27.747-18.765 39.778h-180.109c-8.26-12.03-14.565-25.393-18.765-39.778-3.515-12.042 5.696-24.156 18.376-24.156h180.888c12.679.001 21.891 12.114 18.375 24.156zm-108.819-80.308c17.211 0 31.214 14.002 31.214 31.214v9.939h-62.428v-9.939c0-17.212 14.002-31.214 31.214-31.214z"/></g></g></svg>